<svg width="137" height="171" viewBox="0 0 137 171" fill="none" xmlns="http://www.w3.org/2000/svg">
    <path
        d="M123.081 43.5259L123.095 43.3675V43.2083C123.095 35.1917 116.314 27.9436 107.005 22.9346C97.4222 17.7782 84.0862 14.3333 68.595 14.3333C53.0627 14.3333 39.7256 17.7776 30.1513 22.9355C20.847 27.9478 14.095 35.1969 14.095 43.2083V43.885V44.1747L14.1426 44.4605C14.5945 47.171 15.5573 49.7712 16.9798 52.1241L16.9913 52.1432L17.0031 52.1621C20.2719 57.4165 26.3371 62.0025 34.045 65.4275C41.8211 68.8827 51.563 71.292 62.5934 71.9917L62.7041 71.9987H62.815H74.63H74.7145L74.799 71.9947C85.7144 71.467 95.3299 69.0022 103.03 65.512C110.673 62.0482 116.653 57.4687 120.02 52.5418L120.063 52.4779L120.104 52.4122C121.774 49.7205 122.793 46.6785 123.081 43.5259ZM133.095 127.792C133.095 138.014 126.644 147.621 115.027 154.847C103.438 162.054 87.1063 166.583 68.595 166.583C50.0399 166.583 33.7087 162.053 22.1327 154.847C10.5292 147.625 4.09497 138.018 4.09497 127.792V43.2083C4.09497 32.986 10.5462 23.3785 22.1634 16.1533C33.7515 8.94629 50.0836 4.41667 68.595 4.41667C87.1063 4.41667 103.438 8.94629 115.027 16.1533C126.644 23.3785 133.095 32.986 133.095 43.2083V127.792Z"
        fill="#FEF0E0" stroke="#FEF0E0" stroke-width="7" />
</svg>
    